<svg xmlns="http://www.w3.org/2000/svg" viewBox="0 0 320 200" fill="none" aria-hidden="true">
  <rect width="320" height="200" fill="#0B1D26"/>
  <g fill="#A8B8C4">
    <circle cx="90" cy="140" r="1.5"/><circle cx="110" cy="120" r="1.5"/><circle cx="130" cy="150" r="1.5"/>
    <circle cx="150" cy="90" r="1.5"/><circle cx="160" cy="110" r="1.5"/><circle cx="170" cy="130" r="1.5"/>
    <circle cx="180" cy="85" r="1.5"/><circle cx="200" cy="100" r="1.5"/><circle cx="220" cy="125" r="1.5"/>
    <circle cx="100" cy="100" r="1.5"/><circle cx="120" cy="80" r="1.5"/><circle cx="140" cy="70" r="1.5"/>
    <circle cx="190" cy="75" r="1.5"/><circle cx="210" cy="95" r="1.5"/><circle cx="230" cy="115" r="1.5"/>
    <circle cx="95" cy="115" r="1.5"/><circle cx="175" cy="145" r="1.5"/><circle cx="195" cy="135" r="1.5"/>
  </g>
  <g fill="#FBD784" opacity="0.7">
    <circle cx="155" cy="105" r="2"/><circle cx="165" cy="100" r="2"/><circle cx="160" cy="115" r="2"/>
  </g>
  <text x="160" y="175" fill="#A8B8C4" font-family="system-ui,sans-serif" font-size="10" text-anchor="middle">XYZ (+ attributes)</text>
</svg>
